<svg xmlns="http://www.w3.org/2000/svg" width="96" height="96" viewBox="0 0 96 96" fill="none">
  <circle cx="48" cy="48" r="46" fill="#EAF8F6"/>
  <circle cx="36" cy="35" r="13" fill="#F6B73C"/>
  <g stroke="#F6B73C" stroke-width="4" stroke-linecap="round">
    <path d="M36 13v8M36 49v8M14 35h8M50 35h8M20.4 19.4l5.7 5.7M45.9 44.9l5.7 5.7M51.6 19.4l-5.7 5.7M26.1 44.9l-5.7 5.7"/>
  </g>
  <path d="M31 64c0-8.3 6.7-15 15-15 5.7 0 10.7 3.2 13.2 7.9 1.2-.6 2.6-.9 4-.9 5.2 0 9.4 4.2 9.4 9.4S68.4 74.8 63.2 74.8H39.5C34.8 74.8 31 71 31 66.3V64Z" fill="#0A8F83"/>
  <path d="M24 78h38" stroke="#0A8F83" stroke-width="4" stroke-linecap="round"/>
</svg>
