<svg width="512" height="512" viewBox="0 0 24 24" fill="none" xmlns="http://www.w3.org/2000/svg">
  <rect width="24" height="24" rx="4" fill="white"/>
<path d="M18.5 4L17.5 5.5C17.5 5.5 16 5 14.5 5C13 5 11.5 5.5 11.5 5.5L10.5 4C10.5 4 8 5 7 9C6 13 8 18 8 18L10 20L11 18.5C11 18.5 12 19 14.5 19C17 19 18 18.5 18 18.5L19 20L21 18C21 18 23 13 22 9C21 5 18.5 4 18.5 4Z" stroke="#00796B" stroke-width="1.2" stroke-linecap="round" stroke-linejoin="round"/><circle cx="12" cy="12" r="1" fill="#80CBC4"/><circle cx="17" cy="12" r="1" fill="#80CBC4"/>
</svg>