<svg width="512" height="512" viewBox="0 0 24 24" fill="none" xmlns="http://www.w3.org/2000/svg">
  <rect width="24" height="24" rx="4" fill="white"/>
<path d="M21 11.5C21 16.5 16.5 21 11.5 21C9.5 21 7.8 20.3 6.3 19.2L3 20L4 16.8C2.8 15.3 2 13.5 2 11.5C2 6.5 6.5 2 11.5 2C16.5 2 21 6.5 21 11.5Z" stroke="#00796B" stroke-width="1.2" stroke-linecap="round" stroke-linejoin="round"/><path d="M15 15C15 15 14 16 12 16C10 16 8 14 8 12C8 10 9 9 9 9" stroke="#80CBC4" stroke-width="1.2" stroke-linecap="round"/>
</svg>