<svg width="512" height="512" viewBox="0 0 24 24" fill="none" xmlns="http://www.w3.org/2000/svg">
  <rect width="24" height="24" rx="4" fill="white"/>
<path d="M17 6V4C17 2.89543 16.1046 2 15 2H9C7.89543 2 7 2.89543 7 4V6C7 7.10457 7.89543 8 9 8H15C16.1046 8 17 7.10457 17 6Z" stroke="#00796B" stroke-width="1.2" stroke-linecap="round" stroke-linejoin="round"/><path d="M12 8V16" stroke="#00796B" stroke-width="1.2" stroke-linecap="round" stroke-linejoin="round"/><path d="M17 18V20C17 21.1046 16.1046 22 15 22H9C7.89543 22 7 21.1046 7 20V18C7 16.8954 7.89543 16 9 16H15C16.1046 16 17 16.8954 17 18Z" stroke="#00796B" stroke-width="1.2" stroke-linecap="round" stroke-linejoin="round"/>
</svg>